<svg xmlns="http://www.w3.org/2000/svg" width="1600" height="900" viewBox="0 0 1600 900"><rect width="1600" height="900" fill="#172033"/><rect width="1600" height="14" fill="#FF5C5C"/><text x="70" y="78" fill="#F4EBDD" font-family="'PingFang SC','Noto Sans CJK SC','Microsoft YaHei',Arial,sans-serif" font-size="40" font-weight="900" text-anchor="start">规避：全屏反馈与多焦点遮挡</text><text x="70" y="122" fill="#CFC6B3" font-family="'PingFang SC','Noto Sans CJK SC','Microsoft YaHei',Arial,sans-serif" font-size="22" font-weight="600" text-anchor="start">拒绝常驻雾、全屏闪、伤害数字雨和无来源粒子</text><rect x="1270" y="48" width="257" height="42" rx="21" fill="#FF5C5C" opacity=".18" stroke="#FF5C5C" stroke-width="2"/><text x="1286" y="78" fill="#FF5C5C" font-family="'PingFang SC','Noto Sans CJK SC','Microsoft YaHei',Arial,sans-serif" font-size="18" font-weight="800" text-anchor="start">FEEDBACK DIRECT</text><g transform="translate(420 560) scale(0.9)"><circle cx="0" cy="-115" r="42" fill="#CFC6B3"/><rect x="-48" y="-67" width="96" height="128" rx="38" fill="#CFC6B3"/><line x1="-22" y1="58" x2="-56" y2="145" stroke="#CFC6B3" stroke-width="28" stroke-linecap="round"/><line x1="22" y1="58" x2="58" y2="145" stroke="#CFC6B3" stroke-width="28" stroke-linecap="round"/><line x1="34" y1="-42" x2="105" y2="12" stroke="#CFC6B3" stroke-width="26" stroke-linecap="round"/></g><g transform="translate(1180 560) scale(0.9)"><circle cx="0" cy="-115" r="42" fill="#CFC6B3"/><rect x="-48" y="-67" width="96" height="128" rx="38" fill="#CFC6B3"/><line x1="-22" y1="58" x2="-56" y2="145" stroke="#CFC6B3" stroke-width="28" stroke-linecap="round"/><line x1="22" y1="58" x2="58" y2="145" stroke="#CFC6B3" stroke-width="28" stroke-linecap="round"/><line x1="34" y1="-42" x2="105" y2="12" stroke="#CFC6B3" stroke-width="26" stroke-linecap="round"/></g><rect x="0" y="120" width="1600" height="780" fill="#FF5C5C" opacity=".28"/><circle cx="300" cy="360" r="120" fill="#FFB020" opacity=".48"/><text x="300" y="380" fill="#F4EBDD" font-family="'PingFang SC','Noto Sans CJK SC','Microsoft YaHei',Arial,sans-serif" font-size="64" font-weight="900" text-anchor="middle">999</text><circle cx="600" cy="550" r="138" fill="#FF5C5C" opacity=".48"/><text x="600" y="570" fill="#F4EBDD" font-family="'PingFang SC','Noto Sans CJK SC','Microsoft YaHei',Arial,sans-serif" font-size="64" font-weight="900" text-anchor="middle">888</text><circle cx="900" cy="360" r="156" fill="#8B6DFF" opacity=".48"/><text x="900" y="380" fill="#F4EBDD" font-family="'PingFang SC','Noto Sans CJK SC','Microsoft YaHei',Arial,sans-serif" font-size="64" font-weight="900" text-anchor="middle">777</text><circle cx="1250" cy="550" r="174" fill="#35B8FF" opacity=".48"/><text x="1250" y="570" fill="#F4EBDD" font-family="'PingFang SC','Noto Sans CJK SC','Microsoft YaHei',Arial,sans-serif" font-size="64" font-weight="900" text-anchor="middle">666</text><path d="M180 210 L1420 820 M1420 210 L180 820" stroke="#FF5C5C" stroke-width="38"/><text x="800" y="850" fill="#FF5C5C" font-family="'PingFang SC','Noto Sans CJK SC','Microsoft YaHei',Arial,sans-serif" font-size="34" font-weight="900" text-anchor="middle">拒绝：屏幕占满 ≠ 反馈清晰</text><text x="1530" y="870" fill="#CFC6B3" font-family="'PingFang SC','Noto Sans CJK SC','Microsoft YaHei',Arial,sans-serif" font-size="16" font-weight="700" text-anchor="end">FEEDBACK-S07 · CLEAN-ROOM PROJECT ORIGINAL</text></svg>