<svg xmlns="http://www.w3.org/2000/svg" width="1600" height="900" viewBox="0 0 1600 900"><rect width="1600" height="900" fill="#172033"/><rect width="1600" height="14" fill="#35B8FF"/><text x="70" y="78" fill="#F4EBDD" font-family="'PingFang SC','Noto Sans CJK SC','Microsoft YaHei',Arial,sans-serif" font-size="40" font-weight="900" text-anchor="start">实验：后三个功能槽的负空间测试</text><text x="70" y="122" fill="#CFC6B3" font-family="'PingFang SC','Noto Sans CJK SC','Microsoft YaHei',Arial,sans-serif" font-size="22" font-weight="600" text-anchor="start">直线压制 / 读招反制 / 绕后只测试作用空间，不提前定武器外形</text><rect x="1270" y="48" width="227" height="42" rx="21" fill="#35B8FF" opacity=".18" stroke="#35B8FF" stroke-width="2"/><text x="1286" y="78" fill="#35B8FF" font-family="'PingFang SC','Noto Sans CJK SC','Microsoft YaHei',Arial,sans-serif" font-size="18" font-weight="800" text-anchor="start">WEAPON DIRECT</text><rect x="70" y="190" width="440" height="590" rx="30" fill="#273451" stroke="#8B6DFF" stroke-width="5"/><text x="98" y="236" fill="#8B6DFF" font-family="'PingFang SC','Noto Sans CJK SC','Microsoft YaHei',Arial,sans-serif" font-size="24" font-weight="800" text-anchor="start">LINE PRESSURE</text><rect x="580" y="190" width="440" height="590" rx="30" fill="#273451" stroke="#8B6DFF" stroke-width="5"/><text x="608" y="236" fill="#8B6DFF" font-family="'PingFang SC','Noto Sans CJK SC','Microsoft YaHei',Arial,sans-serif" font-size="24" font-weight="800" text-anchor="start">READ / COUNTER</text><rect x="1090" y="190" width="440" height="590" rx="30" fill="#273451" stroke="#8B6DFF" stroke-width="5"/><text x="1118" y="236" fill="#8B6DFF" font-family="'PingFang SC','Noto Sans CJK SC','Microsoft YaHei',Arial,sans-serif" font-size="24" font-weight="800" text-anchor="start">FLANK</text><g transform="translate(210 540) scale(0.65)"><circle cx="0" cy="-115" r="42" fill="#F4EBDD"/><rect x="-48" y="-67" width="96" height="128" rx="38" fill="#F4EBDD"/><line x1="-22" y1="58" x2="-56" y2="145" stroke="#F4EBDD" stroke-width="28" stroke-linecap="round"/><line x1="22" y1="58" x2="58" y2="145" stroke="#F4EBDD" stroke-width="28" stroke-linecap="round"/><line x1="34" y1="-42" x2="105" y2="12" stroke="#F4EBDD" stroke-width="26" stroke-linecap="round"/></g><rect x="300" y="330" width="160" height="330" rx="28" fill="#8B6DFF" opacity=".28"/><line x1="300" y1="495" x2="440" y2="495" stroke="#8B6DFF" stroke-width="14" stroke-linecap="round"/><polygon points="440,495 416.12931338233386,509.6352424100585 416.12931338233386,480.3647575899415" fill="#8B6DFF"/><g transform="translate(720 540) scale(0.65)"><circle cx="0" cy="-115" r="42" fill="#F4EBDD"/><rect x="-48" y="-67" width="96" height="128" rx="38" fill="#F4EBDD"/><line x1="-22" y1="58" x2="-56" y2="145" stroke="#F4EBDD" stroke-width="28" stroke-linecap="round"/><line x1="22" y1="58" x2="58" y2="145" stroke="#F4EBDD" stroke-width="28" stroke-linecap="round"/><line x1="34" y1="-42" x2="105" y2="12" stroke="#F4EBDD" stroke-width="26" stroke-linecap="round"/></g><path d="M780 500 L960 360 A230 230 0 0 1 960 640 Z" fill="#8B6DFF" opacity=".28"/><g transform="translate(1230 540) scale(0.65)"><circle cx="0" cy="-115" r="42" fill="#F4EBDD"/><rect x="-48" y="-67" width="96" height="128" rx="38" fill="#F4EBDD"/><line x1="-22" y1="58" x2="-56" y2="145" stroke="#F4EBDD" stroke-width="28" stroke-linecap="round"/><line x1="22" y1="58" x2="58" y2="145" stroke="#F4EBDD" stroke-width="28" stroke-linecap="round"/><line x1="34" y1="-42" x2="105" y2="12" stroke="#F4EBDD" stroke-width="26" stroke-linecap="round"/></g><path d="M1250 660 A220 220 0 1 1 1450 440" fill="none" stroke="#8B6DFF" stroke-width="70" opacity=".3"/><line x1="1450" y1="440" x2="1380" y2="390" stroke="#8B6DFF" stroke-width="14" stroke-linecap="round"/><polygon points="1380,390 1407.9309385445451,391.965368164198 1390.917814818418,415.7837413807758" fill="#8B6DFF"/><text x="290" y="730" fill="#8B6DFF" font-family="'PingFang SC','Noto Sans CJK SC','Microsoft YaHei',Arial,sans-serif" font-size="22" font-weight="800" text-anchor="middle">窄直廊</text><text x="800" y="730" fill="#8B6DFF" font-family="'PingFang SC','Noto Sans CJK SC','Microsoft YaHei',Arial,sans-serif" font-size="22" font-weight="800" text-anchor="middle">前置扇区</text><text x="1310" y="730" fill="#8B6DFF" font-family="'PingFang SC','Noto Sans CJK SC','Microsoft YaHei',Arial,sans-serif" font-size="22" font-weight="800" text-anchor="middle">背后弧区</text><text x="1530" y="870" fill="#CFC6B3" font-family="'PingFang SC','Noto Sans CJK SC','Microsoft YaHei',Arial,sans-serif" font-size="16" font-weight="700" text-anchor="end">WEAPON-S08 · CLEAN-ROOM PROJECT ORIGINAL</text></svg>