<svg xmlns="http://www.w3.org/2000/svg" width="1600" height="900" viewBox="0 0 1600 900"><rect width="1600" height="900" fill="#172033"/><rect width="1600" height="14" fill="#35B8FF"/><text x="70" y="78" fill="#F4EBDD" font-family="'PingFang SC','Noto Sans CJK SC','Microsoft YaHei',Arial,sans-serif" font-size="40" font-weight="900" text-anchor="start">失败 / 空挥后的可反制后果</text><text x="70" y="122" fill="#CFC6B3" font-family="'PingFang SC','Noto Sans CJK SC','Microsoft YaHei',Arial,sans-serif" font-size="22" font-weight="600" text-anchor="start">没有HitResolved时不补命中特效；恢复姿态和危险窗口承担失败可读性</text><rect x="1270" y="48" width="227" height="42" rx="21" fill="#35B8FF" opacity=".18" stroke="#35B8FF" stroke-width="2"/><text x="1286" y="78" fill="#35B8FF" font-family="'PingFang SC','Noto Sans CJK SC','Microsoft YaHei',Arial,sans-serif" font-size="18" font-weight="800" text-anchor="start">WEAPON DIRECT</text><rect x="90" y="180" width="620" height="600" rx="30" fill="#273451" stroke="#FF5C5C" stroke-width="5"/><text x="118" y="226" fill="#FF5C5C" font-family="'PingFang SC','Noto Sans CJK SC','Microsoft YaHei',Arial,sans-serif" font-size="24" font-weight="800" text-anchor="start">MISS · 接触焦点为空</text><rect x="890" y="180" width="620" height="600" rx="30" fill="#273451" stroke="#45D483" stroke-width="5"/><text x="918" y="226" fill="#45D483" font-family="'PingFang SC','Noto Sans CJK SC','Microsoft YaHei',Arial,sans-serif" font-size="24" font-weight="800" text-anchor="start">RECOVERY · 反制窗口</text><g transform="translate(300 520) scale(0.9)"><circle cx="0" cy="-115" r="42" fill="#F4EBDD"/><rect x="-48" y="-67" width="96" height="128" rx="38" fill="#F4EBDD"/><line x1="-22" y1="58" x2="-56" y2="145" stroke="#F4EBDD" stroke-width="28" stroke-linecap="round"/><line x1="22" y1="58" x2="58" y2="145" stroke="#F4EBDD" stroke-width="28" stroke-linecap="round"/><line x1="34" y1="-42" x2="105" y2="12" stroke="#F4EBDD" stroke-width="26" stroke-linecap="round"/></g><g transform="translate(420 470) rotate(-18) scale(0.75)"><rect x="-150" y="-20" width="190" height="40" rx="12" fill="#F4EBDD"/><rect x="25" y="-92" width="155" height="184" rx="26" fill="#FFB020"/><rect x="50" y="-58" width="105" height="116" rx="18" fill="#172033" opacity=".18"/></g><path d="M390 350 Q610 330 640 520" fill="none" stroke="#FF5C5C" stroke-width="15" stroke-dasharray="20 16"/><g transform="translate(610 540) scale(0.58)"><circle cx="0" cy="-115" r="42" fill="#CFC6B3"/><rect x="-48" y="-67" width="96" height="128" rx="38" fill="#CFC6B3"/><line x1="-22" y1="58" x2="-56" y2="145" stroke="#CFC6B3" stroke-width="28" stroke-linecap="round"/><line x1="22" y1="58" x2="58" y2="145" stroke="#CFC6B3" stroke-width="28" stroke-linecap="round"/><line x1="34" y1="-42" x2="105" y2="12" stroke="#CFC6B3" stroke-width="26" stroke-linecap="round"/></g><text x="400" y="720" fill="#FF5C5C" font-family="'PingFang SC','Noto Sans CJK SC','Microsoft YaHei',Arial,sans-serif" font-size="24" font-weight="900" text-anchor="middle">NO HitResolved</text><g transform="translate(1110 520) scale(0.9)"><circle cx="0" cy="-115" r="42" fill="#F4EBDD"/><rect x="-48" y="-67" width="96" height="128" rx="38" fill="#F4EBDD"/><line x1="-22" y1="58" x2="-56" y2="145" stroke="#F4EBDD" stroke-width="28" stroke-linecap="round"/><line x1="22" y1="58" x2="58" y2="145" stroke="#F4EBDD" stroke-width="28" stroke-linecap="round"/><line x1="34" y1="-42" x2="105" y2="12" stroke="#F4EBDD" stroke-width="26" stroke-linecap="round"/></g><g transform="translate(1020 650) rotate(150) scale(0.68)"><rect x="-150" y="-20" width="190" height="40" rx="12" fill="#F4EBDD"/><rect x="25" y="-92" width="155" height="184" rx="26" fill="#FFB020"/><rect x="50" y="-58" width="105" height="116" rx="18" fill="#172033" opacity=".18"/></g><rect x="940" y="300" width="470" height="390" rx="42" fill="none" stroke="#45D483" stroke-width="10" stroke-dasharray="22 16"/><text x="1175" y="745" fill="#45D483" font-family="'PingFang SC','Noto Sans CJK SC','Microsoft YaHei',Arial,sans-serif" font-size="24" font-weight="900" text-anchor="middle">COUNTER WINDOW</text><text x="1530" y="870" fill="#CFC6B3" font-family="'PingFang SC','Noto Sans CJK SC','Microsoft YaHei',Arial,sans-serif" font-size="16" font-weight="700" text-anchor="end">WEAPON-S06 · CLEAN-ROOM PROJECT ORIGINAL</text></svg>